<svg id="Capa_1" enable-background="new 0 0 512 512" height="512" viewBox="0 0 512 512" width="512" xmlns="http://www.w3.org/2000/svg"><g><path d="m512 45c0-24.814-20.186-45-45-45s-45 20.186-45 45c0 19.53 12.578 36.024 30 42.237v56.299c-31.518-54.836-86.538-95.46-151-108.638v-19.898c0-8.291-6.709-15-15-15h-60c-8.291 0-15 6.709-15 15v19.898c-64.462 13.178-119.482 53.802-151 108.638v-56.299c17.422-6.213 30-22.707 30-42.237 0-24.814-20.186-45-45-45s-45 20.186-45 45c0 19.53 12.578 36.024 30 42.237v153.763h-15c-8.291 0-15 6.709-15 15v60c0 8.291 6.709 15 15 15h60c8.291 0 15-6.709 15-15v-60c0-8.291-6.709-15-15-15h-13.614c6.612-83.934 68.009-155.446 149.614-174.928v8.928c0 8.291 6.709 15 15 15h60c8.291 0 15-6.709 15-15v-8.928c81.605 19.482 143.002 90.994 149.614 174.928h-13.614c-8.291 0-15 6.709-15 15v60c0 8.291 6.709 15 15 15h60c8.291 0 15-6.709 15-15v-60c0-8.291-6.709-15-15-15h-15v-153.763c17.422-6.213 30-22.707 30-42.237z"/><path d="m152.582 309.291c-2.402 4.819-2.051 10.547.938 15.029l44.452 66.68h116.056l44.453-66.68c2.988-4.482 3.34-10.21.938-15.029l-88.419-177.836v184.545c0 8.291-6.709 15-15 15s-15-6.709-15-15v-184.545z"/><path d="m196 421c-8.291 0-15 6.709-15 15v61c0 8.291 6.709 15 15 15h120c8.291 0 15-6.709 15-15v-61c0-8.291-6.709-15-15-15z"/></g></svg>