<?xml version="1.0" encoding="utf-8"?>
<!-- Generator: Adobe Illustrator 21.0.2, SVG Export Plug-In . SVG Version: 6.00 Build 0)  -->
<svg version="1.1" id="Layer_1" xmlns="http://www.w3.org/2000/svg" xmlns:xlink="http://www.w3.org/1999/xlink" x="0px" y="0px"
	 viewBox="0 0 64 64" style="enable-background:new 0 0 64 64;" xml:space="preserve">
<g>
	<path d="M63,0c0.3,1,0.9,2,1,3.1c0.1,2.1,0,4.3,0,6.4c-0.5,0.5-1,1-1.3,1.3c-3.2,0-6.3,0-9.5,0c-0.1-0.9-0.2-1.7-0.3-2.7
		c-2.2,0-4.5,0-6.9,0c7.2,6.5,9.1,10,10.1,18.5c2.6,0,3.2,2.4,3.8,4.1c0.7,2-0.1,4.1-2,5.8c-0.9,0.3-2.1,0.6-3.2,1
		c-1.1-0.3-2.2-0.6-3.4-0.9c-3.1-3.1-3-6.8,0.6-9c0-1.7,0-3.5,0-5c-2.8-6.8-6.9-12.1-14.1-14.3c-0.9,1-1.8,2-2.4,2.6
		c-2.5,0-4.2,0-5.9,0c-0.9-0.9-1.8-1.9-2.7-2.8c-7.4,2.2-11.8,7.5-14.7,14.9c0,0.9,0,2.6,0,4.3c3.7,2.4,3.9,4.5,0.8,9.3
		c-1,0.3-2.1,0.5-3.5,0.9c-0.8-0.2-2-0.6-3.1-0.9c-1.8-1.7-2.7-3.7-2.1-5.7c0.5-1.6,0.9-3.9,3.6-4c0.5-3.8,1.2-7.7,3.3-11
		c1.9-3.1,4.5-5.7,7.5-7.9c-0.2-0.2-0.4-0.5-0.6-0.7c-1.8,0-3.6,0-5.9,0c-0.4,0.9-0.9,2.2-1.5,3.6c-2.8,0-6,0-9.2,0
		C1,10.5,0.6,10,0,9.4C0.5,6.4-0.8,3,1.1,0c3.3,0,6.7,0,10,0c0,1.5-0.3,3,1.6,3.9c4.5,0,9.2,0,13.4,0C27.6,2.4,28.8,1.2,30,0
		c1.3,0,2.7,0,4,0c1.2,1.2,2.4,2.4,3.9,3.9c4.2,0,8.9,0,12.9,0C53.5,3.1,52.9,1.4,53,0C56.3,0,59.6,0,63,0z"/>
	<path d="M49.1,39.1c-2.8,4.3-6.5,8.2-7.1,13.7c-6.8,0-13.2,0-19.9,0c-1-5.3-4.2-9.5-7.3-13.7c5-7.5,9.9-14.8,14.9-22.3
		c0.5,6,0.1,11.9,0.3,17.9c-3.5-0.2-2.5,3.2-3.7,4.5c0.4,1.3,0.7,2.4,1.2,4c1.1,0.5,2.5,1.2,4,1.7c1.7,0.6,3.3-0.5,4.3-1.4
		c1.1-0.9,1.4-2.7,2.1-4.1c-1.5-1.2-0.2-4.9-3.8-4.6c0-5.9,0-11.7,0-18.1C39.3,24.4,44.1,31.6,49.1,39.1z"/>
	<path d="M45.4,62c-0.8,0.8-1.2,1.2-1.7,1.7c-7.6,0-15.4,0-23.3,0c-0.3-0.3-0.8-0.8-1.2-1.2c-0.2-1.2,1.3-3.8,2.8-4.5
		c1.2-0.6,2.6-0.9,3.9-1.3c4.2-1.4,12.8-0.9,16.3,1.4C43.4,58.9,44.2,60.5,45.4,62z"/>
</g>
</svg>
